<?xml version="1.0" encoding="iso-8859-1"?>
<!-- Generator: Adobe Illustrator 21.0.0, SVG Export Plug-In . SVG Version: 6.00 Build 0)  -->
<svg xmlns="http://www.w3.org/2000/svg" xmlns:xlink="http://www.w3.org/1999/xlink" version="1.1" id="Capa_1" x="0px" y="0px" viewBox="0 0 512 512" style="enable-background:new 0 0 512 512;" xml:space="preserve" width="512" height="512">
<g>
	<path d="M474.04,282.359c-11.474-22.542-13.729-26.811-16.192-32.164c-0.02-0.048-0.043-0.093-0.063-0.14   c-5.22-11.379-5.785-16.631-5.785-31.13V196c0-8.284-6.716-15-15-15h-76v-46c0-8.284-6.716-15-15-15H166c-8.284,0-15,6.716-15,15   v46H75c-8.284,0-15,6.716-15,15v22.925c0,14.506-0.565,19.756-5.797,31.157c-0.015,0.035-0.033,0.07-0.048,0.105   c-2.498,5.431-4.942,10.065-16.195,32.173c-0.021,0.043-0.049,0.099-0.074,0.15C13.1,332.119,0,387.649,0,443.106V466   c0,8.284,6.716,15,15,15h76v16c0,8.284,6.716,15,15,15h300c8.284,0,15-6.716,15-15v-16h76c8.284,0,15-6.716,15-15v-22.894   c0-55.464-13.104-111.005-37.865-160.556C474.104,282.487,474.072,282.423,474.04,282.359z M422,211v7.925   c0,9.064,0.414,15.942,1.465,22.075h-61.261c-0.807-6.425-1.204-13.602-1.204-22.082V211H422z M331,150v31H181v-31H331z M90,211h61   v7.918c0,8.48-0.397,15.657-1.204,22.082H88.534C89.586,234.866,90,227.989,90,218.925V211z M30,451v-7.894   c0-50.833,12.011-101.738,34.732-147.209c0.001-0.001,0.002-0.003,0.003-0.005C75.793,274.168,75.471,274.655,77.4,270.8h64.129   c-4.594,10.733-10.933,22.465-18.945,38.492C101.921,350.617,91,396.88,91,443.082V451H30z M391,482H121v-38.918   c0-41.568,9.826-83.193,28.416-120.374C169.075,283.398,181,266.89,181,218.918V211h150v7.918   c0,47.869,11.803,64.235,31.584,103.79C381.174,359.889,391,401.514,391,443.082V482z M482,451h-61v-7.918   c0-46.202-10.921-92.465-31.584-133.79c-8.012-16.027-14.351-27.559-18.945-38.292H434.6c1.915,3.828,1.62,3.192,12.665,24.892   c0.001,0.001,0.002,0.003,0.003,0.005C469.989,341.369,482,392.273,482,443.106V451z"/>
	<path d="M196,90c8.284,0,15-6.716,15-15c0-24.813,20.187-45,45-45h181c8.284,0,15-6.716,15-15s-6.716-15-15-15H256   c-41.355,0-75,33.645-75,75C181,83.284,187.716,90,196,90z"/>
	<path d="M256,60c-8.284,0-15,6.716-15,15s6.716,15,15,15h30c8.284,0,15-6.716,15-15s-6.716-15-15-15H256z"/>
	<path d="M331,75c0,8.284,6.716,15,15,15h151c8.284,0,15-6.716,15-15s-6.716-15-15-15H346C337.716,60,331,66.716,331,75z"/>
	<path d="M346,346h-47.58c-1.864-5.254-4.677-10.058-8.233-14.213l23.811-41.242c4.14-7.17,1.688-16.337-5.479-20.483   C292.62,260.862,274.46,256,256,256s-36.62,4.862-52.52,14.062c-7.166,4.146-9.618,13.313-5.479,20.483l23.811,41.242   c-3.556,4.155-6.369,8.959-8.233,14.213H166c-8.284,0-15,6.716-15,15c0,37.363,20.109,72.208,52.479,90.938   c7.175,4.15,16.359,1.694,20.503-5.483l23.799-41.221c2.667,0.494,5.411,0.766,8.219,0.766s5.552-0.271,8.219-0.766l23.799,41.221   c4.151,7.19,13.343,9.625,20.503,5.483C340.891,433.208,361,398.363,361,361C361,352.716,354.284,346,346,346z M256,286   c8.114,0,16.142,1.312,23.759,3.849l-15.54,26.917C261.552,316.271,258.808,316,256,316s-5.552,0.271-8.219,0.766l-15.54-26.917   C239.858,287.312,247.886,286,256,286z M206.271,417.132c-12.121-10.779-20.48-25.258-23.744-41.132h31.053   c1.864,5.254,4.677,10.058,8.233,14.213L206.271,417.132z M241,361c0-8.271,6.729-15,15-15s15,6.729,15,15s-6.729,15-15,15   S241,369.271,241,361z M305.729,417.132l-15.542-26.919c3.556-4.155,6.369-9.159,8.233-14.413h31.053   C326.209,391.674,317.85,406.353,305.729,417.132z"/>
</g>















</svg>
