<?xml version="1.0" standalone="no"?>
<!DOCTYPE svg PUBLIC "-//W3C//DTD SVG 20010904//EN"
 "http://www.w3.org/TR/2001/REC-SVG-20010904/DTD/svg10.dtd">
<svg version="1.0" xmlns="http://www.w3.org/2000/svg"
 width="1024.000000pt" height="1024.000000pt" viewBox="0 0 1024.000000 1024.000000"
 preserveAspectRatio="xMidYMid meet">
<g transform="translate(0.000000,1024.000000) scale(0.100000,-0.100000)"
fill="#000000" stroke="none">
<path d="M7172 8750 c-54 -33 -62 -68 -62 -256 0 -133 3 -173 16 -200 40 -84
177 -86 219 -3 14 25 16 62 13 219 l-3 190 -31 31 c-42 41 -104 49 -152 19z"/>
<path d="M6394 8546 c-46 -21 -74 -62 -74 -110 0 -33 16 -68 83 -184 45 -79
92 -154 105 -167 71 -72 202 -15 202 89 0 35 -15 68 -87 194 -48 84 -97 159
-109 166 -33 22 -85 27 -120 12z"/>
<path d="M7984 8546 c-39 -17 -63 -49 -152 -206 -57 -99 -72 -134 -72 -167 0
-97 119 -154 197 -95 12 9 61 84 108 166 70 122 85 157 85 191 0 50 -28 91
-76 111 -41 17 -50 17 -90 0z"/>
<path d="M7090 8049 c-336 -41 -629 -250 -780 -554 -50 -99 -92 -239 -103
-342 l-6 -53 513 0 c475 0 515 -1 535 -17 16 -14 59 -139 173 -503 83 -267
152 -487 154 -489 6 -7 84 30 168 78 91 53 217 167 288 261 63 82 141 242 170
345 19 69 22 105 22 265 0 218 -14 282 -93 445 -166 338 -490 551 -866 569
-55 3 -134 0 -175 -5z"/>
<path d="M5774 7936 c-28 -28 -34 -41 -34 -77 0 -73 22 -95 191 -192 142 -82
157 -88 198 -84 32 4 52 13 75 36 27 28 31 38 31 86 0 71 -11 81 -190 184
-122 71 -146 81 -188 81 -42 0 -54 -5 -83 -34z"/>
<path d="M8417 7884 c-169 -98 -191 -121 -184 -193 4 -32 13 -52 36 -75 27
-27 38 -31 84 -30 47 0 66 8 192 82 168 98 185 115 185 184 0 44 -4 54 -34 84
-29 29 -41 34 -82 34 -43 0 -67 -11 -197 -86z"/>
<path d="M8471 7167 c-84 -43 -87 -174 -4 -218 20 -11 71 -14 212 -14 211 0
230 5 258 72 20 50 9 99 -32 140 l-33 33 -188 0 c-130 0 -196 -4 -213 -13z"/>
<path d="M2425 6968 c-2 -7 -51 -164 -109 -348 l-104 -335 436 -3 c239 -1 437
-1 439 1 5 5 143 665 143 683 0 12 -62 14 -400 14 -312 0 -402 -3 -405 -12z"/>
<path d="M3282 6638 c-40 -189 -72 -346 -72 -350 0 -5 209 -8 465 -8 365 0
465 3 465 13 0 6 11 156 25 332 14 176 25 328 25 338 0 16 -27 17 -418 17
l-418 0 -72 -342z"/>
<path d="M4306 6928 c-10 -83 -46 -572 -46 -612 l0 -36 545 0 c429 0 545 3
545 13 0 6 -11 154 -25 327 -14 173 -25 325 -25 338 l0 22 -494 0 -495 0 -5
-52z"/>
<path d="M5420 6939 c0 -47 38 -553 46 -616 l5 -43 464 0 465 0 -6 28 c-3 15
-36 171 -73 347 l-67 320 -417 3 -417 2 0 -41z"/>
<path d="M6370 6978 c1 -2 34 -158 74 -348 l72 -345 437 -3 c240 -1 437 1 437
5 0 5 -48 162 -106 351 l-107 342 -404 0 c-221 0 -403 -1 -403 -2z"/>
<path d="M8277 6510 c-53 -42 -59 -135 -13 -181 43 -43 311 -189 345 -189 71
0 121 48 121 118 0 74 -16 90 -179 185 -133 77 -156 87 -200 87 -33 0 -56 -6
-74 -20z"/>
<path d="M2055 5783 c-65 -208 -120 -384 -122 -390 -4 -10 96 -13 480 -13 454
0 486 1 491 18 8 27 156 741 156 752 0 6 -162 10 -443 10 l-444 0 -118 -377z"/>
<path d="M3180 6156 c0 -2 -36 -175 -80 -385 -44 -210 -80 -384 -80 -387 0 -2
236 -4 525 -4 289 0 525 2 525 5 0 15 50 657 55 713 l7 62 -476 0 c-262 0
-476 -2 -476 -4z"/>
<path d="M4246 6148 c-4 -13 -57 -718 -56 -750 0 -17 36 -18 615 -18 338 0
615 2 615 5 0 15 -50 657 -55 713 l-7 62 -554 0 c-435 0 -555 -3 -558 -12z"/>
<path d="M5480 6143 c0 -33 51 -698 56 -730 l5 -33 526 0 c416 0 524 3 520 13
-2 6 -40 182 -83 390 l-79 377 -472 0 c-444 0 -473 -1 -473 -17z"/>
<path d="M6581 5978 c21 -101 58 -276 81 -390 l43 -208 483 0 c453 0 482 1
481 18 0 9 -53 184 -117 387 l-117 370 -446 3 -446 2 38 -182z"/>
<path d="M7814 6041 c-38 -23 -58 -70 -51 -119 7 -54 164 -320 202 -344 59
-36 153 -10 175 48 22 58 12 92 -67 233 -96 170 -125 201 -184 201 -25 0 -57
-8 -75 -19z"/>
<path d="M1767 4863 c-70 -225 -127 -411 -127 -416 0 -4 240 -6 532 -5 l533 3
82 390 c45 215 82 400 83 413 l0 22 -488 0 -487 0 -128 -407z"/>
<path d="M2911 4868 c-46 -222 -86 -409 -89 -415 -3 -10 118 -13 587 -13 l591
0 0 23 c0 12 14 193 30 402 16 209 30 386 30 393 0 9 -113 12 -533 12 l-532 0
-84 -402z"/>
<path d="M4179 5268 c0 -2 -15 -189 -32 -415 l-33 -413 688 0 688 0 0 23 c0
12 -14 193 -30 402 -16 209 -30 386 -30 393 0 9 -132 12 -625 12 -344 0 -625
-1 -626 -2z"/>
<path d="M5550 5238 c0 -23 47 -649 60 -795 0 -2 263 -3 585 -3 465 0 585 3
585 13 0 13 -157 770 -166 800 -5 16 -39 17 -535 17 l-529 0 0 -32z"/>
<path d="M6730 5267 c0 -2 38 -185 85 -408 47 -222 85 -407 85 -411 0 -5 241
-8 535 -8 294 0 535 1 535 3 0 1 -58 187 -128 412 l-128 410 -492 3 c-271 1
-492 1 -492 -1z"/>
<path d="M1595 4307 c-3 -7 -79 -247 -169 -535 l-163 -522 596 0 596 0 109
523 c60 287 111 528 114 535 3 9 -108 12 -537 12 -429 0 -543 -3 -546 -13z"/>
<path d="M2795 4308 c-3 -7 -52 -240 -110 -518 -58 -278 -107 -513 -109 -522
-4 -17 33 -18 663 -18 l667 0 37 498 c21 273 40 514 43 535 l6 37 -596 0
c-468 0 -598 -3 -601 -12z"/>
<path d="M4067 3813 c-21 -280 -41 -520 -43 -535 l-6 -28 781 0 781 0 0 28 c0
37 -69 946 -76 1000 l-5 42 -697 0 -698 0 -37 -507z"/>
<path d="M5620 4306 c0 -8 18 -247 40 -531 22 -284 40 -518 40 -521 0 -2 299
-4 665 -4 481 0 665 3 665 11 0 12 -208 1011 -216 1042 -5 16 -42 17 -600 17
-510 0 -594 -2 -594 -14z"/>
<path d="M6930 4316 c0 -3 50 -242 110 -531 61 -289 110 -528 110 -531 0 -2
268 -4 595 -4 327 0 595 3 595 6 0 4 -66 217 -146 473 -80 256 -155 494 -165
529 l-20 62 -539 0 c-297 0 -540 -2 -540 -4z"/>
<path d="M4610 2570 l0 -560 190 0 190 0 0 560 0 560 -190 0 -190 0 0 -560z"/>
<path d="M2706 1639 c-291 -137 -537 -256 -548 -265 -24 -22 -23 -69 2 -94 20
-20 33 -20 2644 -20 l2625 0 21 27 c22 28 21 66 -3 90 -7 6 -253 124 -547 262
l-535 251 -1565 -1 -1565 0 -529 -250z"/>
</g>
</svg>
